<svg xmlns="http://www.w3.org/2000/svg" xmlns:xlink="http://www.w3.org/1999/xlink" width="500" zoomAndPan="magnify" viewBox="0 0 375 374.999991" height="500" preserveAspectRatio="xMidYMid meet" version="1.0"><defs><g/><clipPath id="29eaeb8d27"><path d="M 154 130.621094 L 263 130.621094 L 263 200.371094 L 154 200.371094 Z M 154 130.621094 " clip-rule="nonzero"/></clipPath><clipPath id="144612d47f"><path d="M 112 130.621094 L 221 130.621094 L 221 200.371094 L 112 200.371094 Z M 112 130.621094 " clip-rule="nonzero"/></clipPath></defs><rect x="-37.5" width="450" fill="#ffffff" y="-37.499999" height="449.999989" fill-opacity="1"/><rect x="-37.5" width="450" fill="#050a30" y="-37.499999" height="449.999989" fill-opacity="1"/><g clip-path="url(#29eaeb8d27)"><path fill="#233dff" d="M 228.675781 130.816406 C 218.386719 130.625 209.097656 134.90625 202.609375 141.84375 C 199.707031 144.945312 200.613281 149.976562 204.375 151.949219 C 206.949219 153.296875 210.140625 152.832031 212.125 150.710938 C 216.097656 146.472656 221.75 143.824219 228.019531 143.824219 C 240.21875 143.824219 250.074219 153.847656 249.800781 166.109375 C 249.621094 174.292969 244.757812 181.71875 237.386719 185.285156 C 226.300781 190.652344 215.207031 183.601562 205.515625 178.453125 C 191.621094 171.070312 177.730469 163.691406 163.835938 156.3125 C 160.722656 154.65625 156.855469 155.851562 155.214844 158.972656 C 153.59375 162.058594 154.753906 165.871094 157.816406 167.527344 C 162.042969 169.816406 167.199219 172.828125 168.078125 173.289062 C 173.738281 176.257812 179.398438 179.222656 185.058594 182.191406 C 192.03125 185.847656 198.953125 189.617188 206.003906 193.132812 C 213.125 196.6875 219.878906 200.417969 228.019531 200.417969 C 247.523438 200.417969 263.28125 184.371094 262.8125 164.757812 C 262.367188 146.230469 247.207031 131.160156 228.675781 130.816406 " fill-opacity="1" fill-rule="nonzero"/></g><g clip-path="url(#144612d47f)"><path fill="#f4f6fc" d="M 146.296875 200.410156 C 156.585938 200.601562 165.875 196.320312 172.363281 189.382812 C 175.265625 186.28125 174.359375 181.25 170.597656 179.277344 L 170.390625 179.167969 C 167.863281 177.84375 164.800781 178.433594 162.847656 180.515625 C 158.875 184.753906 153.222656 187.402344 146.953125 187.402344 C 134.753906 187.402344 124.898438 177.378906 125.171875 165.117188 C 125.351562 156.933594 130.214844 149.507812 137.585938 145.941406 C 148.671875 140.574219 159.765625 147.625 169.457031 152.773438 C 183.351562 160.15625 197.242188 167.535156 211.136719 174.917969 C 214.25 176.570312 218.117188 175.378906 219.757812 172.253906 C 221.378906 169.167969 220.21875 165.355469 217.15625 163.699219 C 212.929688 161.410156 207.773438 158.398438 206.894531 157.9375 C 201.234375 154.972656 195.574219 152.003906 189.914062 149.035156 C 182.941406 145.378906 176.019531 141.609375 168.96875 138.09375 C 161.847656 134.542969 155.09375 130.8125 146.953125 130.8125 C 127.449219 130.8125 111.691406 146.855469 112.164062 166.46875 C 112.605469 184.996094 127.765625 200.066406 146.296875 200.410156 " fill-opacity="1" fill-rule="nonzero"/></g><g fill="#233dff" fill-opacity="1"><g transform="translate(63.660536, 251.193456)"><g><path d="M 17.984375 -11.84375 C 17.367188 -11.101562 16.476562 -10.507812 15.3125 -10.0625 C 14.15625 -9.625 12.796875 -9.40625 11.234375 -9.40625 L 7.3125 -9.40625 L 7.3125 0 L 2.546875 0 L 2.546875 -23.640625 L 11.234375 -23.640625 C 13.972656 -23.640625 16.082031 -22.953125 17.5625 -21.578125 C 19.039062 -20.210938 19.78125 -18.601562 19.78125 -16.75 C 19.78125 -14.90625 19.179688 -13.269531 17.984375 -11.84375 Z M 7.3125 -13.0625 L 11.234375 -13.0625 C 12.429688 -13.0625 13.347656 -13.375 13.984375 -14 C 14.617188 -14.625 14.9375 -15.460938 14.9375 -16.515625 C 14.9375 -17.578125 14.617188 -18.421875 13.984375 -19.046875 C 13.347656 -19.671875 12.429688 -19.984375 11.234375 -19.984375 L 7.3125 -19.984375 Z M 7.3125 -13.0625 "/></g></g></g><g fill="#233dff" fill-opacity="1"><g transform="translate(83.797246, 251.193456)"><g><path d="M 14.484375 -5.328125 C 15.484375 -6.316406 15.984375 -7.664062 15.984375 -9.375 C 15.984375 -11.09375 15.484375 -12.441406 14.484375 -13.421875 C 13.492188 -14.398438 12.332031 -14.890625 11 -14.890625 C 9.664062 -14.890625 8.507812 -14.40625 7.53125 -13.4375 C 6.550781 -12.46875 6.0625 -11.125 6.0625 -9.40625 C 6.0625 -7.695312 6.554688 -6.34375 7.546875 -5.34375 C 8.546875 -4.351562 9.703125 -3.859375 11.015625 -3.859375 C 12.335938 -3.859375 13.492188 -4.347656 14.484375 -5.328125 Z M 3.734375 -2.453125 C 2.054688 -4.273438 1.21875 -6.59375 1.21875 -9.40625 C 1.21875 -12.226562 2.050781 -14.535156 3.71875 -16.328125 C 5.394531 -18.128906 7.519531 -19.03125 10.09375 -19.03125 C 12.664062 -19.03125 14.628906 -17.96875 15.984375 -15.84375 L 15.984375 -18.765625 L 20.71875 -18.765625 L 20.71875 0 L 15.984375 0 L 15.984375 -3.15625 C 14.554688 -0.875 12.578125 0.265625 10.046875 0.265625 C 7.523438 0.265625 5.421875 -0.640625 3.734375 -2.453125 Z M 3.734375 -2.453125 "/></g></g></g><g fill="#233dff" fill-opacity="1"><g transform="translate(106.370711, 251.193456)"><g><path d="M 2.546875 0 L 2.546875 -25.0625 L 7.3125 -25.0625 L 7.3125 0 Z M 2.546875 0 "/></g></g></g><g fill="#233dff" fill-opacity="1"><g transform="translate(115.542049, 251.193456)"><g><path d="M 7.828125 -23.53125 C 7.828125 -22.71875 7.539062 -22.03125 6.96875 -21.46875 C 6.40625 -20.90625 5.722656 -20.625 4.921875 -20.625 C 4.117188 -20.625 3.4375 -20.90625 2.875 -21.46875 C 2.3125 -22.03125 2.03125 -22.71875 2.03125 -23.53125 C 2.03125 -24.34375 2.3125 -25.03125 2.875 -25.59375 C 3.4375 -26.15625 4.117188 -26.4375 4.921875 -26.4375 C 5.722656 -26.4375 6.40625 -26.15625 6.96875 -25.59375 C 7.539062 -25.03125 7.828125 -24.34375 7.828125 -23.53125 Z M 2.546875 0 L 2.546875 -18.765625 L 7.3125 -18.765625 L 7.3125 0 Z M 2.546875 0 "/></g></g></g><g fill="#233dff" fill-opacity="1"><g transform="translate(124.713383, 251.193456)"><g><path d="M 7.3125 -18.765625 L 7.3125 -15.953125 C 8.507812 -18.003906 10.453125 -19.03125 13.140625 -19.03125 C 15.285156 -19.03125 17.035156 -18.320312 18.390625 -16.90625 C 19.742188 -15.5 20.421875 -13.539062 20.421875 -11.03125 L 20.421875 0 L 15.671875 0 L 15.671875 -10.359375 C 15.671875 -11.828125 15.296875 -12.945312 14.546875 -13.71875 C 13.804688 -14.5 12.789062 -14.890625 11.5 -14.890625 C 10.21875 -14.890625 9.195312 -14.5 8.4375 -13.71875 C 7.6875 -12.945312 7.3125 -11.828125 7.3125 -10.359375 L 7.3125 0 L 2.546875 0 L 2.546875 -18.765625 Z M 7.3125 -18.765625 "/></g></g></g><g fill="#233dff" fill-opacity="1"><g transform="translate(146.813028, 251.193456)"><g><path d="M 14.484375 -5.328125 C 15.484375 -6.316406 15.984375 -7.664062 15.984375 -9.375 C 15.984375 -11.09375 15.484375 -12.441406 14.484375 -13.421875 C 13.492188 -14.398438 12.332031 -14.890625 11 -14.890625 C 9.664062 -14.890625 8.507812 -14.40625 7.53125 -13.4375 C 6.550781 -12.46875 6.0625 -11.125 6.0625 -9.40625 C 6.0625 -7.695312 6.554688 -6.34375 7.546875 -5.34375 C 8.546875 -4.351562 9.703125 -3.859375 11.015625 -3.859375 C 12.335938 -3.859375 13.492188 -4.347656 14.484375 -5.328125 Z M 3.734375 -2.453125 C 2.054688 -4.273438 1.21875 -6.59375 1.21875 -9.40625 C 1.21875 -12.226562 2.050781 -14.535156 3.71875 -16.328125 C 5.394531 -18.128906 7.519531 -19.03125 10.09375 -19.03125 C 12.664062 -19.03125 14.628906 -17.96875 15.984375 -15.84375 L 15.984375 -25.0625 L 20.71875 -25.0625 L 20.71875 0 L 15.984375 0 L 15.984375 -3.15625 C 14.554688 -0.875 12.578125 0.265625 10.046875 0.265625 C 7.523438 0.265625 5.421875 -0.640625 3.734375 -2.453125 Z M 3.734375 -2.453125 "/></g></g></g><g fill="#233dff" fill-opacity="1"><g transform="translate(169.386497, 251.193456)"><g><path d="M 7.3125 -18.765625 L 7.3125 -15.4375 C 8.570312 -17.832031 10.398438 -19.03125 12.796875 -19.03125 L 12.796875 -14.15625 L 11.609375 -14.15625 C 10.191406 -14.15625 9.117188 -13.796875 8.390625 -13.078125 C 7.671875 -12.367188 7.3125 -11.144531 7.3125 -9.40625 L 7.3125 0 L 2.546875 0 L 2.546875 -18.765625 Z M 7.3125 -18.765625 "/></g></g></g><g fill="#233dff" fill-opacity="1"><g transform="translate(182.348337, 251.193456)"><g><path d="M 10.859375 -3.765625 C 12.191406 -3.765625 13.335938 -4.253906 14.296875 -5.234375 C 15.265625 -6.210938 15.75 -7.597656 15.75 -9.390625 C 15.75 -11.191406 15.273438 -12.578125 14.328125 -13.546875 C 13.378906 -14.515625 12.234375 -15 10.890625 -15 C 9.546875 -15 8.410156 -14.515625 7.484375 -13.546875 C 6.554688 -12.578125 6.09375 -11.1875 6.09375 -9.375 C 6.09375 -7.570312 6.554688 -6.1875 7.484375 -5.21875 C 8.410156 -4.25 9.535156 -3.765625 10.859375 -3.765625 Z M 3.984375 -2.40625 C 2.160156 -4.1875 1.25 -6.519531 1.25 -9.40625 C 1.25 -12.300781 2.175781 -14.628906 4.03125 -16.390625 C 5.882812 -18.148438 8.179688 -19.03125 10.921875 -19.03125 C 13.660156 -19.03125 15.957031 -18.148438 17.8125 -16.390625 C 19.664062 -14.628906 20.59375 -12.300781 20.59375 -9.40625 C 20.59375 -6.519531 19.660156 -4.1875 17.796875 -2.40625 C 15.929688 -0.625 13.617188 0.265625 10.859375 0.265625 C 8.109375 0.265625 5.816406 -0.625 3.984375 -2.40625 Z M 3.984375 -2.40625 "/></g></g></g><g fill="#ffffff" fill-opacity="1"><g transform="translate(203.500374, 251.193456)"><g><path d="M 4.703125 -3.21875 C 2.378906 -5.5 1.21875 -8.390625 1.21875 -11.890625 C 1.21875 -15.390625 2.382812 -18.273438 4.71875 -20.546875 C 7.0625 -22.828125 9.925781 -23.96875 13.3125 -23.96875 C 15.882812 -23.96875 18.164062 -23.3125 20.15625 -22 C 22.15625 -20.695312 23.585938 -18.859375 24.453125 -16.484375 L 18.71875 -16.484375 C 17.664062 -18.566406 15.863281 -19.609375 13.3125 -19.609375 C 11.164062 -19.609375 9.421875 -18.898438 8.078125 -17.484375 C 6.734375 -16.078125 6.0625 -14.203125 6.0625 -11.859375 C 6.0625 -9.523438 6.734375 -7.648438 8.078125 -6.234375 C 9.421875 -4.828125 11.164062 -4.125 13.3125 -4.125 C 15.832031 -4.125 17.632812 -5.164062 18.71875 -7.25 L 24.453125 -7.25 C 23.585938 -4.875 22.15625 -3.035156 20.15625 -1.734375 C 18.164062 -0.441406 15.882812 0.203125 13.3125 0.203125 C 9.894531 0.203125 7.023438 -0.9375 4.703125 -3.21875 Z M 4.703125 -3.21875 "/></g></g></g><g fill="#ffffff" fill-opacity="1"><g transform="translate(228.849019, 251.193456)"><g><path d="M 7.3125 -25.0625 L 7.3125 -15.953125 C 8.507812 -18.003906 10.453125 -19.03125 13.140625 -19.03125 C 15.285156 -19.03125 17.035156 -18.320312 18.390625 -16.90625 C 19.742188 -15.5 20.421875 -13.539062 20.421875 -11.03125 L 20.421875 0 L 15.671875 0 L 15.671875 -10.359375 C 15.671875 -11.828125 15.296875 -12.945312 14.546875 -13.71875 C 13.804688 -14.5 12.789062 -14.890625 11.5 -14.890625 C 10.21875 -14.890625 9.195312 -14.5 8.4375 -13.71875 C 7.6875 -12.945312 7.3125 -11.828125 7.3125 -10.359375 L 7.3125 0 L 2.546875 0 L 2.546875 -25.0625 Z M 7.3125 -25.0625 "/></g></g></g><g fill="#ffffff" fill-opacity="1"><g transform="translate(250.948663, 251.193456)"><g><path d="M 10.46875 0.265625 C 7.726562 0.265625 5.5 -0.617188 3.78125 -2.390625 C 2.070312 -4.160156 1.21875 -6.5 1.21875 -9.40625 C 1.21875 -12.320312 2.082031 -14.65625 3.8125 -16.40625 C 5.539062 -18.15625 7.773438 -19.03125 10.515625 -19.03125 C 13.253906 -19.03125 15.503906 -18.175781 17.265625 -16.46875 C 19.023438 -14.769531 19.90625 -12.5 19.90625 -9.65625 C 19.90625 -9 19.863281 -8.390625 19.78125 -7.828125 L 6.09375 -7.828125 C 6.207031 -6.609375 6.660156 -5.625 7.453125 -4.875 C 8.242188 -4.132812 9.25 -3.765625 10.46875 -3.765625 C 12.113281 -3.765625 13.332031 -4.441406 14.125 -5.796875 L 19.265625 -5.796875 C 18.722656 -4.003906 17.671875 -2.546875 16.109375 -1.421875 C 14.554688 -0.296875 12.675781 0.265625 10.46875 0.265625 Z M 14.96875 -10.90625 C 14.894531 -12.144531 14.4375 -13.132812 13.59375 -13.875 C 12.75 -14.625 11.726562 -15 10.53125 -15 C 9.332031 -15 8.332031 -14.625 7.53125 -13.875 C 6.726562 -13.132812 6.25 -12.144531 6.09375 -10.90625 Z M 14.96875 -10.90625 "/></g></g></g><g fill="#ffffff" fill-opacity="1"><g transform="translate(271.389967, 251.193456)"><g><path d="M 3.78125 -2.375 C 2.070312 -4.132812 1.21875 -6.46875 1.21875 -9.375 C 1.21875 -12.289062 2.070312 -14.628906 3.78125 -16.390625 C 5.5 -18.148438 7.726562 -19.03125 10.46875 -19.03125 C 12.738281 -19.03125 14.640625 -18.472656 16.171875 -17.359375 C 17.710938 -16.253906 18.742188 -14.6875 19.265625 -12.65625 L 14.125 -12.65625 C 13.507812 -14.21875 12.289062 -15 10.46875 -15 C 9.082031 -15 8 -14.492188 7.21875 -13.484375 C 6.445312 -12.484375 6.0625 -11.113281 6.0625 -9.375 C 6.0625 -7.632812 6.445312 -6.265625 7.21875 -5.265625 C 8 -4.265625 9.082031 -3.765625 10.46875 -3.765625 C 12.269531 -3.765625 13.488281 -4.550781 14.125 -6.125 L 19.265625 -6.125 C 18.722656 -4.164062 17.675781 -2.609375 16.125 -1.453125 C 14.582031 -0.304688 12.695312 0.265625 10.46875 0.265625 C 7.726562 0.265625 5.5 -0.613281 3.78125 -2.375 Z M 3.78125 -2.375 "/></g></g></g><g fill="#ffffff" fill-opacity="1"><g transform="translate(291.019027, 251.193456)"><g><path d="M 7.3125 0 L 2.546875 0 L 2.546875 -25.0625 L 7.3125 -25.0625 L 7.3125 -10.734375 L 13.640625 -18.765625 L 20.109375 -18.765625 L 11.78125 -9.28125 L 20.109375 0 L 13.75 0 L 7.3125 -7.828125 Z M 7.3125 0 "/></g></g></g></svg>